<?xml version="1.0" encoding="UTF-8" standalone="no" ?>
<!DOCTYPE svg PUBLIC "-//W3C//DTD SVG 1.1//EN" "http://www.w3.org/Graphics/SVG/1.1/DTD/svg11.dtd">
<svg xmlns="http://www.w3.org/2000/svg" xmlns:xlink="http://www.w3.org/1999/xlink" version="1.1" width="400" height="400" viewBox="0 0 400 400" xml:space="preserve">
<desc>Created with Fabric.js 3.6.2</desc>
<defs>
</defs>
<g transform="matrix(4.17 0 0 4.17 200 204.17)" id="Layer_1"  >
<path style="stroke: none; stroke-width: 1; stroke-dasharray: none; stroke-linecap: butt; stroke-dashoffset: 0; stroke-linejoin: miter; stroke-miterlimit: 4; fill: rgb(255,255,255); fill-rule: nonzero; opacity: 1;"  transform=" translate(-24, -25)" d="M 24 5 C 21.361 5 13.33 5 8.89 9.054 C 6.246 11.688 5 15.494 5 21 v 3 c 0 5.506 1.246 9.312 3.921 11.976 c 1.332 1.215 3.148 2.186 5.368 2.857 L 15 39.047 v 5.328 C 15 45 15.181 45 15.241 45 c 0.123 0 0.32 -0.039 0.694 -0.371 c 0.09 -0.089 0.75 -0.803 3.96 -4.399 l 0.324 -0.363 l 0.485 0.031 C 21.779 39.965 22.888 40 24 40 c 2.639 0 10.67 0 15.11 -4.055 C 41.753 33.311 43 29.505 43 24 v -3 c 0 -5.506 -1.246 -9.312 -3.921 -11.976 C 34.67 5 26.639 5 24 5 z" stroke-linecap="round" />
</g>
<g transform="matrix(4.17 0 0 4.17 195.83 195.84)" id="Layer_1"  >
<path style="stroke: none; stroke-width: 1; stroke-dasharray: none; stroke-linecap: butt; stroke-dashoffset: 0; stroke-linejoin: miter; stroke-miterlimit: 4; fill: rgb(126,87,194); fill-rule: nonzero; opacity: 1;"  transform=" translate(-23, -23)" d="M 33.451 28.854 c -1.111 -0.936 -1.624 -1.219 -3.158 -2.14 C 29.654 26.331 28.68 26 28.169 26 c -0.349 0 -0.767 0.267 -1.023 0.523 C 26.49 27.179 26.275 28 25.125 28 c -1.125 0 -3.09 -1.145 -4.5 -2.625 C 19.145 23.965 18 22 18 20.875 c 0 -1.15 0.806 -1.38 1.462 -2.037 C 19.718 18.583 20 18.165 20 17.816 c 0 -0.511 -0.331 -1.47 -0.714 -2.109 c -0.921 -1.535 -1.203 -2.048 -2.14 -3.158 c -0.317 -0.376 -0.678 -0.548 -1.056 -0.549 c -0.639 -0.001 -1.478 0.316 -2.046 0.739 c -0.854 0.637 -1.747 1.504 -1.986 2.584 c -0.032 0.147 -0.051 0.295 -0.057 0.443 c -0.046 1.125 0.396 2.267 0.873 3.234 c 1.123 2.279 2.609 4.485 4.226 6.455 c 0.517 0.63 1.08 1.216 1.663 1.782 c 0.566 0.582 1.152 1.145 1.782 1.663 c 1.97 1.617 4.176 3.103 6.455 4.226 c 0.958 0.472 2.086 0.906 3.2 0.874 c 0.159 -0.005 0.318 -0.023 0.477 -0.058 c 1.08 -0.238 1.947 -1.132 2.584 -1.986 c 0.423 -0.568 0.74 -1.406 0.739 -2.046 C 33.999 29.532 33.827 29.171 33.451 28.854 z" stroke-linecap="round" />
</g>
<g transform="matrix(4.17 0 0 4.17 220.83 172.92)" id="Layer_1"  >
<path style="stroke: none; stroke-width: 1; stroke-dasharray: none; stroke-linecap: butt; stroke-dashoffset: 0; stroke-linejoin: miter; stroke-miterlimit: 4; fill: rgb(126,87,194); fill-rule: nonzero; opacity: 1;"  transform=" translate(-29, -17.5)" d="M 34 24 c -0.552 0 -1 -0.448 -1 -1 v -1 c 0 -4.962 -4.038 -9 -9 -9 c -0.552 0 -1 -0.448 -1 -1 s 0.448 -1 1 -1 c 6.065 0 11 4.935 11 11 v 1 C 35 23.552 34.552 24 34 24 z" stroke-linecap="round" />
</g>
<g transform="matrix(4.17 0 0 4.17 210.12 181.54)" id="Layer_1"  >
<path style="stroke: none; stroke-width: 1; stroke-dasharray: none; stroke-linecap: butt; stroke-dashoffset: 0; stroke-linejoin: miter; stroke-miterlimit: 4; fill: rgb(126,87,194); fill-rule: nonzero; opacity: 1;"  transform=" translate(-26.43, -19.57)" d="M 27.858 22 c -0.444 0 -0.85 -0.298 -0.967 -0.748 c -0.274 -1.051 -1.094 -1.872 -2.141 -2.142 c -0.535 -0.139 -0.856 -0.684 -0.718 -1.219 c 0.138 -0.534 0.682 -0.855 1.219 -0.718 c 1.748 0.453 3.118 1.822 3.575 3.574 c 0.139 0.535 -0.181 1.08 -0.715 1.22 C 28.026 21.989 27.941 22 27.858 22 z" stroke-linecap="round" />
</g>
<g transform="matrix(4.17 0 0 4.17 215.36 177.12)" id="Layer_1"  >
<path style="stroke: none; stroke-width: 1; stroke-dasharray: none; stroke-linecap: butt; stroke-dashoffset: 0; stroke-linejoin: miter; stroke-miterlimit: 4; fill: rgb(126,87,194); fill-rule: nonzero; opacity: 1;"  transform=" translate(-27.69, -18.51)" d="M 31 23 c -0.552 0 -1 -0.448 -1 -1 c 0 -3.188 -2.494 -5.818 -5.678 -5.986 c -0.552 -0.029 -0.975 -0.5 -0.946 -1.051 c 0.029 -0.552 0.508 -0.976 1.051 -0.946 C 28.674 14.241 32 17.748 32 22 C 32 22.552 31.552 23 31 23 z" stroke-linecap="round" />
</g>
<g transform="matrix(4.17 0 0 4.17 200 204.17)" id="Layer_1"  >
<path style="stroke: none; stroke-width: 1; stroke-dasharray: none; stroke-linecap: butt; stroke-dashoffset: 0; stroke-linejoin: miter; stroke-miterlimit: 4; fill: rgb(126,87,194); fill-rule: nonzero; opacity: 1;"  transform=" translate(-24, -25)" d="M 24 4 C 19.5 4 12.488 4.414 8.216 8.316 C 5.196 11.323 4 15.541 4 21 c 0 0.452 -0.002 0.956 0.002 1.5 C 3.998 23.043 4 23.547 4 23.999 c 0 5.459 1.196 9.677 4.216 12.684 c 1.626 1.485 3.654 2.462 5.784 3.106 v 4.586 C 14 45.971 15.049 46 15.241 46 h 0.009 c 0.494 -0.002 0.921 -0.244 1.349 -0.624 c 0.161 -0.143 2.02 -2.215 4.042 -4.481 C 21.845 40.972 22.989 41 23.999 41 c 0 0 0 0 0 0 s 0 0 0 0 c 4.5 0 11.511 -0.415 15.784 -4.317 c 3.019 -3.006 4.216 -7.225 4.216 -12.684 c 0 -0.452 0.002 -0.956 -0.002 -1.5 c 0.004 -0.544 0.002 -1.047 0.002 -1.5 c 0 -5.459 -1.196 -9.677 -4.216 -12.684 C 35.511 4.414 28.5 4 24 4 z M 41 23.651 l 0 0.348 c 0 4.906 -1.045 8.249 -3.286 10.512 C 33.832 38 26.437 38 23.999 38 c -0.742 0 -1.946 -0.001 -3.367 -0.1 C 20.237 38.344 16 43.083 16 43.083 V 37.22 c -2.104 -0.505 -4.183 -1.333 -5.714 -2.708 C 8.045 32.248 7 28.905 7 23.999 l 0 -0.348 c 0 -0.351 -0.001 -0.73 0.002 -1.173 C 6.999 22.078 6.999 21.7 7 21.348 L 7 21 c 0 -4.906 1.045 -8.249 3.286 -10.512 C 14.167 6.999 21.563 6.999 24 6.999 c 2.437 0 9.832 0 13.713 3.489 c 2.242 2.263 3.286 5.606 3.286 10.512 l 0 0.348 c 0 0.351 0.001 0.73 -0.002 1.173 C 41 22.922 41 23.3 41 23.651 z" stroke-linecap="round" />
</g>
</svg>